<?xml version="1.0" encoding="UTF-8"?>
<svg id="_レイヤー_2" data-name="レイヤー 2" xmlns="http://www.w3.org/2000/svg" viewBox="0 0 1024 620.12">
  <defs>
    <style>
      .cls-1 {
        fill: #fff;
      }
    </style>
  </defs>
  <g id="_レイヤー_2-2" data-name="レイヤー 2">
    <g>
      <path class="cls-1" d="M1017.27,578.54l-391.4-204.21-76.99-42.67c-10.93-6.52-16.6-7.41-20.59-7.41-.03,0-.75-.06-1.96-.06-3.27,0-11.68.46-19.14,4.73L62.18,569.8c-2.33,1.26-7.75,4.6-7.74,8.39,0,8.15,6.02,9.68,18.79,11.05,2.42.26,248.87,26.85,286.99,30.54.23.04,2.39.35,5.77.35,5,0,12.75-.67,21.24-3.83,37.07-13.81,255.16-74.98,264.45-77.58l.31-.09c10.77-3.17,15.12-4.4,15.6-4.5l1.27-.23c1.61-.3,3.28-.61,5.76-.61,3.78,0,8.7.71,15.55,2.26l310.5,52.63,12.73,2.06c3.04.51,5.97-1.32,6.92-4.2.98-2.92-.3-6.08-3.04-7.51ZM910.43,549.55c-1.27,3.83-5.1,6.28-9.24,5.6l-206.06-33.45c-2.87-.47-5.24-2.34-6.36-5.02-1.05-2.51-.76-5.42.74-7.73l39.59-55.21c1.6-1.59,3.67-2.47,5.85-2.47,1.33,0,2.66.33,3.84.94l167.58,87.32c3.65,1.9,5.35,6.11,4.05,10.02ZM711.83,448.95l-38.18,53.46c-1.59,2.03-3.98,3.2-6.54,3.22-2.63,0-5.14-1.27-6.7-3.38l-87.23-118.12-.23-.42c-1.64-2.96-5.48-9.89-1.42-14.31,1.05-1.14,2.25-1.65,3.9-1.65,1.04,0,2.3.2,3.9.61,3.01,1.08,71.33,38.2,128.93,69.66,2.12,1.13,3.66,3.11,4.2,5.46.43,1.85.17,3.81-.62,5.48ZM524.9,357.45c6.1,0,12.72,5.19,18.7,14.7l101.36,137.26c2.21,3.31,2.85,6.29,1.9,8.86-1.32,3.61-5.55,6.39-12.93,8.52-2.25.67-227.71,67.82-231.19,69.02-1.96.67-4.78,1.6-6.5,1.87-.74.12-1.48.19-2.16.19-2.66,0-3.28-1.11-3.49-1.48-1.07-1.9.11-5.68,3.54-11.3l119.02-218.63c3.78-7.45,8.47-9.02,11.74-9.02ZM489.7,363.33c.69,0,.91.36.98.48,1.14,1.86-2.07,8.42-7.08,18.22l-101.02,196.01c-1.81,3.6-4.2,5.5-6.91,5.5-4.09,0-8.45-4.44-10.46-8.57l-45.91-101.4c-1.07-2.43-5.82-14.92,5.42-21.76l161.18-87.24c2.4-1.22,3.23-1.23,3.78-1.23v-1.45s.02,1.45.02,1.45ZM356.16,601.64c-.51.86-1.58,2.01-5,2.01-1.87,0-3.95-.32-5.97-.64-1.17-.18-2.32-.36-3.37-.46l-220.98-28.72c-2.67-.32-6.32-.75-7.7-2.83-.61-.91-.71-2.02-.31-3.4.64-2.22,2.65-3.34,7.17-5.66l163.51-88.79c2.64-1.57,4.89-2.32,6.87-2.32,5.05,0,7.23,5.08,9.35,9.99l.57,1.32,51.25,102.97c4.6,8.37,6.15,13.93,4.61,16.53Z"/>
      <g>
        <path class="cls-1" d="M70.31,217.95V36.91c0-.8-.65-1.45-1.45-1.45H0V4.29h179.63v31.16h-68.86c-.8,0-1.45.65-1.45,1.45v181.05h-39.02Z"/>
        <path class="cls-1" d="M205.64,217.95V64.81c7.44-2.55,16.76-4.99,27.73-7.27,11.43-2.36,24.26-3.56,38.16-3.56,2.57,0,5.63.16,9.12.46,3.38.3,6.91.72,10.48,1.24,3.47.52,6.88,1.14,10.13,1.86,2.6.57,4.79,1.12,6.53,1.62l-6.31,29.03c-3.17-.91-7.31-1.87-12.34-2.86-5.91-1.16-12.83-1.75-20.58-1.75-4.44,0-9.24.43-14.27,1.27-5.08.86-8.54,1.59-10.59,2.24-.6.19-1.01.75-1.01,1.38v129.49h-37.04Z"/>
        <path class="cls-1" d="M411.48,221.71c-13.61,0-25.14-1.86-34.29-5.52-9.09-3.64-16.45-8.76-21.87-15.21-5.45-6.47-9.4-14.32-11.76-23.34-2.38-9.09-3.58-19.22-3.58-30.1V57.42h37.04v84.17c0,17.73,2.81,30.63,8.36,38.35,5.65,7.86,15.54,11.85,29.4,11.85,4.88,0,10.08-.21,15.46-.63,5.42-.41,9.55-.95,12.27-1.6.65-.15,1.12-.74,1.12-1.41V57.42h37.04v155.84c-7.5,1.78-17.19,3.63-28.82,5.49-12.22,1.96-25.8,2.95-40.37,2.95Z"/>
        <path class="cls-1" d="M582.46,222.02c-14.98,0-27.18-1.19-36.28-3.55-8.24-2.13-14.34-3.91-18.15-5.29l6.3-28.7c5.66,2.1,12.34,4.12,19.88,6.02,8.32,2.1,17.93,3.17,28.58,3.17s18.66-1.22,23.75-3.74c5.35-2.65,8.07-7.24,8.07-13.64,0-5.89-2.82-10.82-8.39-14.63-5.24-3.59-13.97-7.54-25.92-11.74-7.2-2.48-13.87-5.14-19.84-7.92-5.9-2.74-11.07-5.98-15.35-9.63-4.22-3.6-7.6-8.01-10.03-13.11-2.43-5.09-3.66-11.45-3.66-18.91,0-14.44,5.69-25.99,16.91-34.31,11.35-8.41,27.05-12.68,46.67-12.68,9.97,0,19.65.89,28.78,2.63,8.34,1.6,14.84,3.17,19.35,4.67l-6.57,27.7c-4.21-1.65-9.41-3.19-15.49-4.59-6.9-1.58-15-2.38-24.09-2.38-8.34,0-15.23,1.37-20.47,4.07-5.56,2.86-8.38,7.34-8.38,13.32,0,2.92.55,5.54,1.63,7.81,1.09,2.3,2.96,4.43,5.57,6.33,2.49,1.82,5.8,3.66,9.84,5.46,3.97,1.78,8.91,3.64,14.67,5.52,9.34,3.29,17.39,6.58,23.91,9.77,6.45,3.16,11.83,6.76,15.98,10.69,4.11,3.89,7.15,8.39,9.05,13.37,1.91,5.02,2.88,11.16,2.88,18.24,0,15.04-5.94,26.56-17.67,34.25-11.92,7.83-29.26,11.79-51.52,11.79Z"/>
        <path class="cls-1" d="M739.9,222.02c-14.98,0-27.18-1.19-36.28-3.55-8.25-2.14-14.35-3.92-18.15-5.29l6.3-28.7c5.66,2.1,12.34,4.12,19.88,6.02,8.32,2.1,17.93,3.17,28.57,3.17s18.66-1.22,23.75-3.74c5.35-2.65,8.07-7.24,8.07-13.64,0-5.89-2.82-10.82-8.39-14.63-5.25-3.59-13.97-7.54-25.92-11.74-7.21-2.48-13.88-5.14-19.84-7.92-5.91-2.74-11.07-5.99-15.35-9.63-4.23-3.6-7.6-8.01-10.03-13.11-2.43-5.09-3.66-11.45-3.66-18.91,0-14.44,5.69-25.99,16.91-34.31,11.36-8.41,27.06-12.68,46.67-12.68,9.96,0,19.65.89,28.78,2.63,8.33,1.6,14.84,3.17,19.35,4.67l-6.57,27.7c-4.21-1.65-9.41-3.19-15.49-4.59-6.9-1.58-15-2.38-24.09-2.38-8.34,0-15.23,1.37-20.47,4.07-5.56,2.86-8.38,7.34-8.38,13.32,0,2.92.55,5.55,1.63,7.81,1.09,2.3,2.97,4.43,5.57,6.33,2.5,1.83,5.81,3.67,9.84,5.46,3.97,1.78,8.91,3.64,14.67,5.52,9.34,3.29,17.39,6.58,23.91,9.77,6.45,3.16,11.83,6.76,15.98,10.69,4.11,3.89,7.15,8.39,9.05,13.37,1.91,5.01,2.88,11.15,2.88,18.24,0,15.04-5.94,26.56-17.66,34.25-11.92,7.83-29.26,11.79-51.52,11.79Z"/>
      </g>
      <path class="cls-1" d="M953.78,220.82c-16.7,0-31.89-2.46-45.14-7.32-13.24-4.85-24.61-12.08-33.79-21.48-9.18-9.4-16.33-21.04-21.25-34.59-4.92-13.56-7.41-29.38-7.41-47.02s2.87-33.44,8.54-46.99c5.66-13.56,13.52-25.2,23.35-34.61,9.82-9.41,21.53-16.63,34.78-21.49,13.25-4.86,27.68-7.32,42.88-7.32,9.2,0,17.67.67,25.16,1.98,7.51,1.32,14.14,2.81,19.7,4.43,5.57,1.63,10.22,3.37,13.83,5.17,3.32,1.67,5.76,2.91,7.31,3.74l-11.56,30.47c-5.17-2.95-12.47-5.8-21.73-8.45-9.61-2.76-20.18-4.16-31.41-4.16-9.73,0-18.95,1.61-27.41,4.79-8.46,3.19-15.89,8.03-22.07,14.39-6.19,6.37-11.08,14.49-14.54,24.13-3.46,9.62-5.22,20.93-5.22,33.61,0,11.25,1.37,21.72,4.07,31.13,2.71,9.44,6.94,17.71,12.58,24.58,5.65,6.89,12.91,12.31,21.59,16.11,8.65,3.79,19.19,5.72,31.32,5.72,14.46,0,26.39-1.4,35.47-4.16,8.68-2.64,15.59-5.18,20.55-7.56l10.64,30.53c-2.49,1.52-5.86,3.07-10.02,4.61-4.34,1.61-9.6,3.2-15.65,4.74-5.99,1.52-12.83,2.75-20.33,3.66-7.48.91-15.63,1.37-24.22,1.37Z"/>
    </g>
  </g>
</svg>